<svg xmlns="http://www.w3.org/2000/svg" xmlns:xlink="http://www.w3.org/1999/xlink" width="500" zoomAndPan="magnify" viewBox="0 0 375 374.999991" height="500" preserveAspectRatio="xMidYMid meet" version="1.0"><defs><clipPath id="25a8cbf897"><path d="M 0.144531 54.9375 L 375 54.9375 L 375 319.6875 L 0.144531 319.6875 Z M 0.144531 54.9375 " clip-rule="nonzero"/></clipPath></defs><path fill="#ffffff" d="M 203.40625 74.183594 L 62.285156 74.183594 L 62.285156 56.058594 L 203.40625 56.058594 Z M 165.574219 201.21875 L 190.660156 200.976562 L 190.675781 200.738281 L 203.398438 200.738281 L 203.398438 165.777344 C 207.320312 164.691406 211.453125 163.496094 214.074219 162.589844 C 220.289062 160.445312 221 155.675781 220.050781 150.90625 C 219.089844 146.140625 207.628906 143.515625 207.628906 143.515625 C 207.628906 143.515625 217.179688 138.746094 216.230469 136.363281 C 215.273438 133.976562 209.542969 135.40625 205.238281 137.320312 C 204.648438 137.585938 204.03125 137.867188 203.40625 138.164062 L 203.40625 75.457031 L 61.652344 75.457031 L 61.652344 200.738281 L 165.710938 200.738281 C 165.625 201.054688 165.574219 201.21875 165.574219 201.21875 Z M 280.808594 85.140625 L 280.808594 84.78125 C 280.808594 76.429688 274.027344 69.664062 265.664062 69.664062 L 231.519531 69.664062 C 223.15625 69.664062 216.375 76.429688 216.375 84.78125 L 216.375 85.140625 C 216.375 92.4375 221.554688 98.523438 228.4375 99.941406 L 223.164062 109.160156 L 240.476562 100.257812 L 265.671875 100.257812 C 274.027344 100.257812 280.808594 93.488281 280.808594 85.140625 Z M 12.914062 264.183594 C 12.914062 264.183594 14.988281 254.328125 23.746094 254.003906 C 32.503906 253.6875 78.851562 254.484375 78.851562 254.484375 L 81.71875 258.621094 L 66.652344 258.730469 C 73.449219 258.960938 78.851562 259.25 78.851562 259.25 C 78.851562 259.25 76.78125 266.25 79.484375 269.746094 L 61.6875 270.242188 C 71.867188 270.191406 82.191406 270.0625 82.191406 270.0625 C 82.191406 270.0625 84.578125 273.242188 79.484375 274.199219 C 74.390625 275.15625 22.785156 275.625 22.785156 275.625 C 22.785156 275.625 13.546875 274.992188 12.914062 264.183594 Z M 36.835938 268.96875 C 36.054688 268.171875 35.378906 267.078125 35.148438 265.609375 C 35.320312 267.214844 35.6875 268.265625 36.835938 268.96875 Z M 40.148438 258.933594 C 40.148438 258.933594 38.324219 259.261719 36.851562 260.441406 C 37.800781 259.816406 39.207031 259.269531 41.261719 258.933594 C 41.277344 258.933594 41.304688 258.925781 41.328125 258.925781 Z M 66.746094 291.84375 C 66.746094 291.84375 73.117188 289.625 71.839844 284.847656 C 70.566406 280.078125 65.625 280.078125 65.625 280.078125 L 27.554688 280.394531 C 27.554688 280.394531 29.308594 286.597656 27.71875 291.519531 Z M 83.945312 308.382812 C 83.945312 314.902344 77.578125 318.082031 77.578125 318.082031 L 17.847656 318.398438 L 14.660156 313.464844 L 22.253906 313.464844 L 18.640625 312.507812 C 21.664062 309.015625 18.804688 301.851562 18.804688 301.851562 L 56.875 302.015625 L 15.464844 301.535156 C 15.464844 301.535156 16.578125 297.085938 22.152344 296.605469 C 27.726562 296.128906 77.105469 297.5625 77.105469 297.5625 C 77.105469 297.5625 83.945312 301.859375 83.945312 308.382812 Z M 61.859375 304.5 C 62.199219 305.109375 62.464844 305.851562 62.601562 306.792969 C 62.542969 305.851562 62.261719 305.109375 61.859375 304.5 Z M 208.097656 245.578125 L 189.222656 263.945312 L 198.578125 286.847656 C 194.117188 276.386719 186.832031 259.578125 186.832031 259.578125 C 186.832031 259.578125 186.515625 257.988281 178.554688 257.988281 C 170.59375 257.988281 107.199219 258.621094 107.199219 258.621094 C 107.199219 258.621094 101.777344 258.933594 103.054688 264.976562 L 120.253906 308.542969 L 124.078125 309.816406 C 124.078125 309.816406 124.398438 317.132812 126.632812 318.082031 C 128.855469 319.039062 225.699219 318.398438 225.699219 318.398438 C 225.699219 318.398438 228.566406 315.535156 228.882812 311.398438 C 229.199219 307.261719 227.292969 305.988281 227.292969 305.988281 L 204.992188 306.304688 C 204.992188 306.304688 203.398438 298.671875 201.804688 294.539062 C 201.730469 294.324219 201.609375 294.035156 201.464844 293.691406 L 229.835938 267.277344 C 227.453125 255.117188 208.097656 245.578125 208.097656 245.578125 Z M 339.980469 262.039062 C 339.980469 262.039062 330.425781 259.894531 322.0625 261.320312 C 313.699219 262.746094 307.011719 272.054688 307.011719 272.054688 L 314.65625 292.085938 C 314.65625 292.085938 289.574219 292.5625 283.359375 290.65625 C 277.144531 288.75 273.804688 278.257812 269.738281 273.96875 C 265.671875 269.675781 260.183594 273.25 254.6875 276.351562 C 249.191406 279.453125 249.429688 287.804688 249.429688 287.804688 L 254.449219 284.703125 C 258.273438 278.734375 262.570312 280.882812 262.570312 280.882812 C 257.792969 282.785156 257.554688 288.992188 257.554688 288.992188 C 257.554688 288.992188 258.753906 297.820312 263.292969 299.007812 C 267.828125 300.203125 269.976562 303.777344 269.976562 303.777344 C 271.175781 309.5 280.96875 310.6875 280.96875 310.6875 C 280.96875 310.6875 314.417969 316.652344 329.949219 316.414062 C 345.476562 316.175781 349.0625 307.355469 349.0625 299.726562 C 349.0625 292.085938 339.980469 262.039062 339.980469 262.039062 Z M 265.199219 197.644531 C 265.199219 197.644531 268.066406 206.472656 267.347656 211 C 266.628906 215.53125 263.292969 216.011719 263.292969 216.011719 L 255.167969 216.25 C 255.167969 216.25 255.644531 223.878906 268.308594 224.597656 C 280.96875 225.316406 288.136719 220.070312 293.871094 216.25 C 293.871094 216.25 285.746094 216.25 284.316406 211.71875 C 282.886719 207.191406 279.78125 198.839844 281.929688 194.789062 C 281.929688 194.789062 282.40625 193.59375 285.515625 193.125 C 288.625 192.644531 291.960938 191.21875 291.960938 186.6875 C 291.960938 182.160156 288.855469 179.296875 280.730469 186.449219 L 285.746094 164.273438 C 285.746094 164.273438 284.078125 157.121094 257.074219 158.070312 C 257.074219 158.070312 248.472656 173.808594 248.953125 181.441406 C 249.429688 189.054688 251.820312 196.6875 265.199219 197.644531 Z M 265.199219 197.644531 " fill-opacity="1" fill-rule="evenodd"/><path fill="#f7ce4d" d="M 104.097656 65.601562 C 104.097656 67.578125 102.496094 69.183594 100.511719 69.183594 C 98.535156 69.183594 96.925781 67.585938 96.925781 65.601562 C 96.925781 63.621094 98.523438 62.023438 100.511719 62.023438 C 102.488281 62.023438 104.097656 63.621094 104.097656 65.601562 Z M 88.886719 61.945312 C 86.90625 61.945312 85.296875 63.542969 85.296875 65.527344 C 85.296875 67.507812 86.898438 69.105469 88.886719 69.105469 C 90.863281 69.105469 92.472656 67.507812 92.472656 65.527344 C 92.472656 63.542969 90.863281 61.945312 88.886719 61.945312 Z M 77.652344 61.945312 C 75.675781 61.945312 74.066406 63.542969 74.066406 65.527344 C 74.066406 67.507812 75.667969 69.105469 77.652344 69.105469 C 79.632812 69.105469 81.242188 67.507812 81.242188 65.527344 C 81.242188 63.542969 79.632812 61.945312 77.652344 61.945312 Z M 87.371094 150.898438 C 81.949219 158.769531 71.761719 200.105469 71.761719 200.105469 L 85.625 199.945312 C 85.625 199.945312 114.21875 172.28125 117.957031 170.289062 C 121.699219 168.296875 130.304688 169.8125 132.214844 170.210938 C 134.121094 170.613281 140.972656 168.066406 140.972656 168.066406 C 140.972656 168.066406 142.640625 169.023438 142.246094 171.726562 C 141.84375 174.425781 134.523438 176.175781 134.523438 176.175781 L 147.90625 183.175781 C 147.90625 183.175781 151.492188 188.023438 150.21875 189.695312 C 148.941406 191.363281 144.566406 189.535156 144.566406 189.535156 C 144.566406 189.535156 141.699219 192.875 135.722656 195.5 C 129.746094 198.125 121.152344 196.695312 121.152344 196.695312 L 117.566406 200.277344 L 165.582031 201.234375 L 178.964844 156.164062 L 169.890625 146.867188 L 167.980469 164.992188 L 154.359375 165.230469 L 150.300781 150.207031 L 140.507812 149.488281 L 142.417969 159.027344 C 135.492188 160.453125 125.21875 157.359375 125.21875 157.359375 L 122.828125 146.148438 C 113.277344 145.191406 103.480469 135.890625 103.480469 135.890625 C 98.515625 137.703125 87.371094 150.898438 87.371094 150.898438 Z M 41.707031 228.410156 C 34.386719 228.410156 28.445312 234.066406 28.445312 241.050781 C 28.445312 248.03125 34.378906 253.6875 41.707031 253.6875 C 49.035156 253.6875 54.964844 248.03125 54.964844 241.050781 C 54.957031 234.066406 49.023438 228.410156 41.707031 228.410156 Z M 32.980469 226.734375 C 26.296875 218.863281 15.304688 224.109375 15.304688 224.109375 C 23.1875 233.417969 32.980469 226.734375 32.980469 226.734375 Z M 27.082031 274.992188 C 27.082031 274.992188 25.492188 278.335938 25.328125 279.761719 L 67.535156 280.554688 C 67.535156 280.554688 72.15625 283.734375 71.679688 287.394531 C 71.199219 291.050781 68.332031 292.324219 63.554688 292.160156 C 58.777344 292 24.53125 291.683594 24.53125 291.683594 C 24.53125 291.683594 25.644531 296.769531 29.472656 296.929688 C 33.296875 297.09375 82.507812 296.613281 82.507812 296.613281 C 82.507812 296.613281 94.613281 295.023438 93.335938 285.640625 C 92.0625 276.257812 82.027344 275.464844 82.027344 275.464844 Z M 208.097656 245.578125 C 208.097656 245.578125 226.257812 252.730469 229.84375 267.285156 L 237.007812 262.515625 L 241.304688 295.664062 L 249.429688 287.792969 C 249.429688 287.792969 248.230469 280.640625 253.257812 277.539062 C 258.273438 274.4375 264.488281 272.769531 264.488281 272.769531 L 271.65625 265.378906 L 275.953125 268.003906 L 269.738281 273.96875 C 269.738281 273.96875 276.183594 288.273438 283.359375 290.65625 C 290.523438 293.042969 314.65625 292.085938 314.65625 292.085938 L 307.011719 272.054688 C 307.011719 272.054688 318.484375 256.3125 339.980469 262.039062 C 339.980469 262.039062 330.425781 232.9375 324.210938 227.222656 C 317.996094 221.503906 307.722656 217.445312 302.234375 216.726562 C 296.746094 216.011719 293.871094 216.25 293.871094 216.25 C 293.871094 216.25 283.597656 227.222656 268.308594 224.597656 C 253.019531 221.976562 255.167969 216.25 255.167969 216.25 C 255.167969 216.25 232.949219 209.097656 206.429688 246.535156 M 241.546875 303.296875 L 243.457031 318.558594 L 317.996094 318.082031 L 314.648438 315.457031 L 283.589844 311.636719 C 283.589844 311.636719 271.648438 310.441406 269.96875 303.765625 L 263.28125 299 L 258.746094 294.230469 L 257.546875 288.984375 Z M 241.546875 303.296875 " fill-opacity="1" fill-rule="evenodd"/><path fill="#000000" d="M 172.980469 93.417969 C 176.566406 106.777344 167.964844 164.964844 167.964844 164.964844 L 154.34375 165.203125 L 148.128906 140.164062 L 140.960938 136.113281 L 144.070312 125.859375 C 144.070312 125.859375 152.914062 128.003906 157.929688 123.953125 C 162.945312 119.902344 165.574219 114.65625 166.535156 109.167969 C 167.492188 103.683594 165.335938 99.152344 165.335938 99.152344 L 137.382812 104.402344 C 137.382812 104.402344 130.21875 97.726562 128.308594 102.734375 C 126.398438 107.742188 134.285156 112.75 134.285156 112.75 L 142.410156 159.019531 C 142.410156 159.019531 131.894531 162.597656 125.210938 157.351562 L 121.007812 134.988281 C 120.570312 132.644531 118.214844 131.183594 115.921875 131.824219 L 105.613281 134.6875 C 105.613281 134.6875 123.53125 85.796875 128.550781 80.308594 C 133.566406 74.824219 135.953125 70.535156 142.648438 71.25 C 149.328125 71.960938 169.402344 80.070312 172.980469 93.417969 Z M 256.835938 282.070312 C 253.726562 285.171875 249.429688 287.792969 249.429688 287.792969 L 237.726562 300.914062 L 236.058594 305.441406 L 239.886719 305.441406 L 257.5625 288.984375 L 262.582031 280.871094 C 262.570312 280.871094 259.945312 278.96875 256.835938 282.070312 Z M 264.480469 272.761719 L 269.738281 273.960938 L 275.953125 267.992188 L 271.65625 265.371094 Z M 288.613281 148.515625 C 277.382812 140.644531 265.199219 140.164062 261.382812 141.839844 C 257.554688 143.507812 258.515625 146.128906 257.324219 148.515625 C 256.125 150.898438 254.933594 148.515625 252.066406 152.335938 C 249.199219 156.15625 253.496094 161.632812 253.496094 161.632812 L 257.085938 158.050781 C 257.085938 158.050781 278.351562 158.53125 282.886719 160.4375 C 287.425781 162.34375 285.035156 166.640625 285.035156 166.640625 L 280.738281 186.433594 C 286.953125 180.945312 291.25 182.851562 291.25 182.851562 C 291.25 182.851562 293.398438 180.46875 297.464844 174.261719 C 301.535156 168.058594 299.847656 156.386719 288.613281 148.515625 Z M 288.613281 148.515625 " fill-opacity="1" fill-rule="evenodd"/><g clip-path="url(#25a8cbf897)"><path fill="#000000" d="M 373.832031 317.117188 L 335.296875 317.117188 C 340.71875 316.167969 344.6875 313.972656 347.136719 310.5625 C 350.355469 306.082031 350.949219 299.707031 348.953125 291.078125 C 345.75 277.230469 334.074219 235.246094 322.789062 224.308594 C 315.257812 217 303.144531 215.8125 295.128906 215.027344 C 291.722656 214.695312 287.851562 214.316406 287.175781 213.558594 C 285.097656 211.25 281.277344 198.304688 283.230469 194.839844 C 283.453125 194.441406 283.71875 194.234375 284.394531 194.363281 C 287.808594 195.003906 290.78125 193.40625 292.148438 190.167969 C 293.136719 187.84375 293.039062 185.320312 292.046875 183.59375 C 294.667969 181.859375 299.691406 177.082031 299.691406 165.90625 C 299.691406 160.597656 296.980469 155.25 291.851562 150.4375 C 284.632812 143.667969 273.785156 139.105469 266.074219 139.59375 C 263.53125 139.753906 258.238281 140.078125 256.851562 144.523438 C 256.5625 145.457031 256.519531 146.308594 256.476562 147.0625 C 256.398438 148.609375 256.382812 148.976562 254.746094 149.335938 C 252.050781 149.933594 250.902344 151.445312 250.414062 152.617188 C 248.953125 156.09375 251.261719 160.777344 252.605469 163.042969 C 250.59375 167.144531 248.359375 172.851562 247.675781 178.972656 C 247.035156 184.765625 248.15625 189.464844 251.015625 192.945312 C 253.832031 196.363281 258.164062 198.421875 263.90625 199.070312 C 265.789062 205.277344 266.9375 212.464844 265.566406 213.832031 C 264.429688 214.96875 262.921875 214.875 259.644531 214.546875 C 257.09375 214.292969 253.925781 213.984375 249.78125 214.410156 C 240.597656 215.359375 230.347656 217.746094 215.179688 235.195312 C 202.550781 249.714844 192.191406 260.082031 189.699219 262.542969 L 188.863281 260.480469 C 187.875 258.046875 185.539062 256.484375 182.910156 256.484375 C 182.902344 256.484375 182.886719 256.484375 182.878906 256.484375 L 107.832031 256.902344 C 105.714844 256.910156 103.738281 257.960938 102.550781 259.714844 C 101.359375 261.464844 101.109375 263.679688 101.882812 265.644531 L 117.949219 306.699219 C 118.761719 308.765625 120.535156 310.210938 122.648438 310.636719 L 122.648438 312.125 C 122.648438 314.066406 123.421875 315.824219 124.671875 317.125 L 80.410156 317.125 C 83.328125 314.96875 85.238281 311.527344 85.238281 307.628906 C 85.238281 303.542969 83.148438 299.9375 79.980469 297.820312 L 82.644531 297.820312 C 89.167969 297.820312 94.476562 292.519531 94.476562 286.007812 C 94.476562 279.496094 89.167969 274.199219 82.644531 274.199219 L 81.898438 274.199219 C 82.789062 273.113281 83.328125 271.71875 83.328125 270.207031 C 83.328125 269.5 82.753906 268.925781 82.046875 268.925781 L 80.023438 268.925781 C 79.589844 267.941406 79.023438 266.488281 78.757812 265.113281 C 78.484375 263.660156 79.324219 261.4375 79.914062 260.15625 L 81.710938 260.15625 C 82.421875 260.15625 82.996094 259.585938 82.996094 258.875 C 82.996094 255.578125 80.308594 252.894531 77.003906 252.894531 L 49.402344 252.894531 C 53.726562 250.5625 56.644531 246.238281 56.644531 241.296875 C 56.644531 233.886719 50.105469 227.855469 42.054688 227.855469 C 41.644531 227.855469 41.242188 227.878906 40.839844 227.914062 C 39.890625 226.085938 37.363281 223.394531 36.535156 222.53125 C 36.039062 222.015625 35.234375 222 34.71875 222.496094 C 34.207031 222.984375 34.1875 223.796875 34.6875 224.308594 C 35.953125 225.625 37.355469 227.265625 38.128906 228.375 C 31.996094 229.964844 27.484375 235.152344 27.484375 241.304688 C 27.484375 246.253906 30.40625 250.570312 34.726562 252.902344 L 23.777344 252.902344 C 17.253906 252.902344 11.949219 258.199219 11.949219 264.710938 C 11.949219 271.222656 17.253906 276.523438 23.777344 276.523438 L 24.6875 276.523438 C 23.898438 277.539062 23.417969 278.804688 23.417969 280.1875 C 23.417969 280.898438 23.992188 281.472656 24.703125 281.472656 L 26.5 281.472656 C 27.101562 282.753906 27.929688 284.984375 27.65625 286.425781 C 27.398438 287.804688 26.828125 289.265625 26.390625 290.238281 L 24.386719 290.238281 C 23.675781 290.238281 23.101562 290.8125 23.101562 291.519531 C 23.101562 293.1875 23.761719 294.699219 24.816406 295.828125 L 20.175781 295.828125 C 16.871094 295.828125 14.183594 298.511719 14.183594 301.808594 C 14.183594 302.519531 14.753906 303.09375 15.464844 303.09375 L 17.265625 303.09375 C 17.863281 304.375 18.695312 306.605469 18.417969 308.046875 C 18.164062 309.425781 17.589844 310.886719 17.152344 311.859375 L 15.132812 311.859375 C 14.421875 311.859375 13.847656 312.433594 13.847656 313.140625 C 13.847656 314.65625 14.386719 316.039062 15.277344 317.132812 L 1.441406 317.132812 C 0.734375 317.132812 0.160156 317.707031 0.160156 318.414062 C 0.160156 319.125 0.734375 319.695312 1.441406 319.695312 L 373.832031 319.695312 C 374.542969 319.695312 375.117188 319.125 375.117188 318.414062 C 375.117188 317.707031 374.535156 317.117188 373.832031 317.117188 Z M 30.046875 241.289062 C 30.046875 235.289062 35.4375 230.410156 42.054688 230.410156 C 48.683594 230.410156 54.078125 235.289062 54.078125 241.289062 C 54.078125 247.289062 48.683594 252.167969 42.054688 252.167969 C 35.429688 252.167969 30.046875 247.289062 30.046875 241.289062 Z M 91.898438 286 C 91.898438 291.101562 87.746094 295.246094 82.636719 295.246094 L 29.410156 295.246094 C 27.792969 295.246094 26.414062 294.222656 25.894531 292.785156 L 25.988281 292.785156 C 26.226562 293.085938 26.585938 293.273438 26.980469 293.273438 L 66.164062 293.273438 C 70.136719 293.273438 73.371094 290.042969 73.371094 286.078125 C 73.371094 282.113281 70.136719 278.882812 66.164062 278.882812 L 26.246094 278.882812 C 26.75 277.632812 27.980469 276.746094 29.410156 276.746094 L 71.15625 276.746094 C 71.199219 276.769531 71.234375 276.796875 71.277344 276.8125 C 71.53125 276.914062 77.492188 279.546875 74.898438 289.898438 C 74.726562 290.582031 75.144531 291.28125 75.828125 291.453125 C 75.933594 291.476562 76.042969 291.488281 76.148438 291.488281 C 76.71875 291.488281 77.242188 291.09375 77.386719 290.511719 C 79.210938 283.238281 77.242188 279.019531 75.230469 276.746094 L 82.628906 276.746094 C 87.738281 276.753906 91.898438 280.898438 91.898438 286 Z M 29.300781 281.453125 L 66.164062 281.453125 C 68.722656 281.453125 70.804688 283.53125 70.804688 286.085938 C 70.804688 288.640625 68.722656 290.71875 66.164062 290.71875 L 28.992188 290.71875 C 29.4375 289.648438 29.933594 288.257812 30.191406 286.890625 C 30.523438 285.101562 29.898438 282.964844 29.300781 281.453125 Z M 14.515625 264.695312 C 14.515625 259.59375 18.667969 255.449219 23.777344 255.449219 L 31.140625 255.449219 C 30.851562 255.773438 30.566406 256.125 30.292969 256.535156 C 28.820312 258.746094 27.398438 262.738281 29.019531 269.214844 C 29.164062 269.796875 29.6875 270.191406 30.257812 270.191406 C 30.363281 270.191406 30.464844 270.183594 30.578125 270.15625 C 31.261719 269.984375 31.679688 269.285156 31.507812 268.601562 C 28.925781 258.277344 34.855469 255.636719 35.128906 255.527344 C 35.171875 255.507812 35.214844 255.484375 35.257812 255.457031 L 76.996094 255.457031 C 78.425781 255.457031 79.65625 256.335938 80.160156 257.59375 L 40.25 257.59375 C 36.277344 257.59375 33.042969 260.824219 33.042969 264.789062 C 33.042969 268.753906 36.277344 271.984375 40.25 271.984375 L 79.433594 271.984375 C 79.828125 271.984375 80.1875 271.796875 80.425781 271.496094 L 80.519531 271.496094 C 80 272.933594 78.621094 273.960938 77.003906 273.960938 L 23.777344 273.960938 C 18.675781 273.941406 14.515625 269.789062 14.515625 264.695312 Z M 76.222656 265.574219 C 76.480469 266.941406 76.976562 268.335938 77.421875 269.402344 L 40.25 269.402344 C 37.691406 269.402344 35.609375 267.328125 35.609375 264.773438 C 35.609375 262.21875 37.691406 260.140625 40.25 260.140625 L 77.105469 260.140625 C 76.515625 261.660156 75.890625 263.796875 76.222656 265.574219 Z M 20.175781 298.375 L 61.917969 298.375 C 61.960938 298.398438 61.996094 298.425781 62.039062 298.441406 C 62.296875 298.546875 68.253906 301.175781 65.660156 311.519531 C 65.488281 312.203125 65.90625 312.902344 66.59375 313.074219 C 66.695312 313.097656 66.804688 313.109375 66.910156 313.109375 C 67.484375 313.109375 68.003906 312.714844 68.152344 312.132812 C 69.972656 304.859375 68.003906 300.640625 65.992188 298.367188 L 73.390625 298.367188 C 78.492188 298.367188 82.652344 302.511719 82.652344 307.613281 C 82.652344 312.707031 78.5 316.859375 73.390625 316.859375 L 20.175781 316.859375 C 18.554688 316.859375 17.179688 315.832031 16.65625 314.398438 L 16.75 314.398438 C 16.988281 314.695312 17.347656 314.886719 17.742188 314.886719 L 56.925781 314.886719 C 60.898438 314.886719 64.136719 311.65625 64.136719 307.691406 C 64.136719 303.722656 60.898438 300.492188 56.925781 300.492188 L 17.007812 300.492188 C 17.511719 299.253906 18.746094 298.375 20.175781 298.375 Z M 20.0625 303.074219 L 56.917969 303.074219 C 59.476562 303.074219 61.558594 305.152344 61.558594 307.707031 C 61.558594 310.261719 59.476562 312.339844 56.917969 312.339844 L 19.746094 312.339844 C 20.191406 311.269531 20.6875 309.878906 20.945312 308.511719 C 21.289062 306.722656 20.664062 304.585938 20.0625 303.074219 Z M 244.765625 317.117188 L 243.316406 303.492188 L 256.871094 290.324219 C 256.851562 291.050781 256.871094 291.792969 256.914062 292.5625 C 257.230469 298.050781 263.820312 301.546875 267.726562 303.144531 C 268.238281 303.355469 268.640625 303.800781 268.847656 304.40625 C 271.3125 311.714844 279.085938 312.371094 281.40625 312.398438 C 282.125 312.40625 282.777344 312.464844 283.410156 312.585938 C 287.296875 313.304688 302.03125 315.945312 315.589844 317.125 L 244.765625 317.125 Z M 249.832031 289.496094 C 251.980469 289.777344 254.4375 286.710938 255.75 284.777344 C 257.210938 282.625 258.992188 281.820312 260.398438 281.546875 C 258.898438 282.992188 257.984375 284.597656 257.453125 286.359375 C 257.28125 286.417969 257.117188 286.503906 256.972656 286.640625 L 239.191406 303.929688 L 237.992188 303.929688 L 238.78125 301.578125 Z M 345.050781 309.074219 C 342.695312 312.347656 338.507812 314.3125 332.601562 314.902344 C 318.578125 316.296875 289.546875 311.117188 283.871094 310.066406 C 283.09375 309.921875 282.296875 309.84375 281.433594 309.835938 C 279 309.808594 273.152344 309.140625 271.277344 303.585938 C 271.191406 303.332031 271.082031 303.09375 270.953125 302.851562 C 272.726562 302.3125 275.363281 301.230469 276.492188 299.339844 C 276.859375 298.734375 276.664062 297.949219 276.054688 297.578125 C 275.449219 297.210938 274.660156 297.410156 274.292969 298.015625 C 273.46875 299.390625 270.472656 300.425781 268.777344 300.757812 C 268.761719 300.757812 268.746094 300.765625 268.726562 300.777344 C 268.71875 300.777344 268.710938 300.765625 268.703125 300.757812 C 267.863281 300.417969 266.269531 299.707031 264.644531 298.707031 C 265.125 297.441406 267.117188 292.921875 271.851562 290.425781 C 272.476562 290.09375 272.714844 289.324219 272.390625 288.691406 C 272.058594 288.066406 271.285156 287.820312 270.652344 288.152344 C 265.722656 290.742188 263.359375 295.136719 262.484375 297.179688 C 261.613281 296.460938 260.84375 295.65625 260.292969 294.785156 C 260.636719 293.570312 262.847656 286.648438 269.34375 284.957031 C 270.027344 284.777344 270.441406 284.078125 270.257812 283.394531 C 270.078125 282.710938 269.378906 282.300781 268.691406 282.480469 C 263.839844 283.742188 261.003906 287.238281 259.4375 290.128906 C 259.59375 285.804688 261.253906 282.804688 267.136719 280.292969 C 267.785156 280.007812 268.085938 279.257812 267.8125 278.609375 C 267.527344 277.957031 266.777344 277.660156 266.125 277.933594 C 265.21875 278.316406 264.402344 278.726562 263.660156 279.144531 C 263.539062 279.070312 263.402344 279 263.25 278.96875 C 263.007812 278.914062 257.410156 277.726562 253.617188 283.316406 C 252.265625 285.316406 251.039062 286.425781 250.414062 286.796875 C 250.390625 286.617188 250.371094 286.359375 250.390625 285.992188 C 250.535156 282.035156 254.839844 275.78125 262.5625 274.328125 C 265.824219 273.710938 267.5625 274 268.820312 275.121094 C 268.863281 275.171875 268.882812 275.234375 268.933594 275.273438 C 268.976562 275.308594 269.019531 275.328125 269.070312 275.359375 C 269.96875 276.285156 270.644531 277.652344 271.535156 279.480469 C 272.039062 280.515625 272.605469 281.675781 273.308594 282.914062 C 277.074219 289.613281 287.277344 296.714844 287.714844 297.015625 C 287.9375 297.167969 288.195312 297.246094 288.445312 297.246094 C 288.847656 297.246094 289.25 297.050781 289.496094 296.691406 C 289.898438 296.109375 289.753906 295.308594 289.171875 294.90625 C 289.136719 294.878906 287.9375 294.050781 286.242188 292.71875 L 319.785156 293.582031 C 319.792969 293.582031 319.8125 293.582031 319.820312 293.582031 C 320.511719 293.582031 321.085938 293.023438 321.105469 292.332031 C 321.121094 291.625 320.5625 291.035156 319.855469 291.015625 L 315.445312 290.90625 C 315.445312 290.898438 315.445312 290.886719 315.4375 290.878906 L 308.433594 273.027344 C 308.484375 272.976562 308.535156 272.933594 308.578125 272.875 C 309.050781 272.25 320.359375 257.664062 338.304688 262.96875 C 342.265625 275.128906 345.289062 286.648438 346.4375 291.632812 C 348.277344 299.527344 347.8125 305.226562 345.050781 309.074219 Z M 269.71875 272.574219 C 269.15625 272.207031 268.511719 271.925781 267.769531 271.738281 L 272.324219 266.761719 L 273.871094 268.105469 Z M 252.785156 153.617188 C 253.164062 152.71875 253.992188 152.136719 255.3125 151.847656 C 258.847656 151.0625 258.96875 148.832031 259.042969 147.199219 C 259.078125 146.566406 259.113281 145.917969 259.300781 145.300781 C 260.019531 143.011719 262.589844 142.394531 266.234375 142.164062 C 273.1875 141.730469 283.453125 146.097656 290.09375 152.328125 C 293.304688 155.335938 297.125 160.136719 297.125 165.929688 C 297.125 177.074219 291.746094 180.902344 290.070312 181.828125 C 287.714844 180.835938 284.609375 182.226562 282.246094 183.722656 C 284.796875 175.273438 287.636719 164.078125 285.601562 161.753906 C 285.558594 161.699219 285.507812 161.648438 285.445312 161.605469 C 279.855469 157.007812 259.566406 156.292969 257.273438 156.222656 C 256.828125 156.199219 256.425781 156.417969 256.175781 156.777344 C 256.074219 156.925781 255.199219 158.214844 254.035156 160.308594 C 252.878906 157.976562 252.074219 155.300781 252.785156 153.617188 Z M 267.382812 215.640625 C 270.558594 212.472656 267.203125 200.953125 266.109375 197.492188 C 265.953125 196.996094 265.507812 196.644531 264.996094 196.601562 C 259.53125 196.132812 255.5 194.355469 253 191.320312 C 250.59375 188.398438 249.671875 184.339844 250.234375 179.261719 C 251.289062 169.792969 256.46875 161.085938 257.921875 158.804688 C 264.34375 159.042969 279.464844 160.257812 283.675781 163.460938 C 284.53125 165.394531 281.75 176.929688 278.632812 186.679688 C 278.460938 187.226562 278.667969 187.824219 279.144531 188.140625 C 279.625 188.457031 280.257812 188.414062 280.695312 188.039062 C 283.222656 185.867188 287.707031 183.175781 289.316406 184.304688 C 290.378906 185.046875 290.59375 187.277344 289.789062 189.183594 C 289.367188 190.183594 288.03125 192.457031 284.875 191.851562 C 283.1875 191.535156 281.808594 192.148438 280.996094 193.585938 C 278.238281 198.464844 282.800781 212.53125 285.277344 215.273438 C 286.234375 216.335938 288.195312 216.804688 291.039062 217.164062 C 288.527344 219.324219 282.40625 223.445312 271.65625 224.109375 C 260.363281 224.796875 257.316406 219.222656 256.535156 216.855469 C 257.574219 216.925781 258.523438 217.019531 259.394531 217.105469 C 262.707031 217.429688 265.335938 217.683594 267.382812 215.640625 Z M 250.046875 216.96875 C 251.425781 216.820312 252.683594 216.769531 253.855469 216.769531 C 254.097656 217.777344 254.78125 219.890625 256.628906 221.914062 C 258.683594 224.171875 262.605469 226.726562 269.804688 226.726562 C 270.449219 226.726562 271.125 226.710938 271.816406 226.667969 C 287.015625 225.726562 293.589844 218.410156 294.332031 217.523438 C 294.523438 217.539062 294.691406 217.554688 294.882812 217.574219 C 296.464844 217.726562 298.160156 217.898438 299.914062 218.113281 C 298.914062 219.34375 296.824219 221.648438 293.570312 223.949219 C 289.214844 227.015625 281.800781 230.699219 271.246094 230.777344 C 271.140625 230.777344 271.039062 230.777344 270.9375 230.777344 C 254.34375 230.777344 249.472656 220.597656 248.300781 217.15625 C 248.890625 217.085938 249.464844 217.027344 250.046875 216.96875 Z M 217.113281 236.878906 C 229.320312 222.839844 238.105469 218.976562 245.742188 217.566406 C 246.21875 219.070312 247.425781 222.085938 250.082031 225.101562 C 253.402344 228.878906 259.710938 233.347656 270.945312 233.347656 C 271.046875 233.347656 271.160156 233.347656 271.269531 233.347656 C 292.886719 233.1875 302.363281 219.214844 302.757812 218.625 C 302.773438 218.589844 302.792969 218.554688 302.808594 218.523438 C 309.296875 219.539062 316.199219 221.46875 321.019531 226.144531 C 326.710938 231.664062 332.617188 245.988281 337.359375 260.082031 C 321.464844 256.3125 310.429688 266.96875 307.398438 270.351562 L 304.785156 263.710938 C 304.53125 263.054688 303.785156 262.730469 303.125 262.984375 C 302.464844 263.242188 302.140625 263.984375 302.398438 264.644531 L 312.6875 290.855469 L 283.066406 290.09375 C 280.257812 287.640625 277.195312 284.574219 275.566406 281.683594 C 274.910156 280.503906 274.351562 279.378906 273.863281 278.378906 C 273.117188 276.855469 272.433594 275.472656 271.585938 274.351562 L 276.664062 268.875 C 276.902344 268.617188 277.023438 268.277344 277.003906 267.933594 C 276.988281 267.582031 276.824219 267.257812 276.5625 267.035156 L 273.058594 264.011719 C 272.527344 263.558594 271.742188 263.601562 271.269531 264.113281 L 264.582031 271.429688 C 264.558594 271.457031 264.550781 271.488281 264.53125 271.515625 C 263.796875 271.566406 263 271.660156 262.109375 271.832031 C 252.660156 273.609375 248.007812 281.292969 247.847656 285.921875 C 247.820312 286.617188 247.882812 287.207031 248.007812 287.699219 L 242.351562 293.878906 L 238.140625 252.441406 C 238.121094 252.277344 238.078125 252.117188 238 251.980469 L 234.5 245.304688 C 234.175781 244.679688 233.394531 244.433594 232.761719 244.765625 C 232.136719 245.089844 231.890625 245.867188 232.222656 246.5 L 235.613281 252.960938 L 236.460938 261.328125 L 231.144531 265.925781 C 225.433594 251.320312 214.160156 246.84375 209.417969 245.578125 C 211.832031 242.878906 214.425781 239.972656 217.113281 236.878906 Z M 190.917969 264.941406 C 191 264.859375 197.765625 258.277344 207.421875 247.742188 C 210.238281 248.289062 223.199219 251.636719 229.054688 267.710938 L 201.480469 291.5625 L 190.71875 265.078125 C 190.789062 265.019531 190.863281 264.996094 190.917969 264.941406 Z M 120.339844 305.765625 L 104.269531 264.710938 C 103.800781 263.515625 103.945312 262.21875 104.671875 261.148438 C 105.398438 260.082031 106.554688 259.464844 107.839844 259.464844 L 182.886719 259.046875 C 182.894531 259.046875 182.902344 259.046875 182.910156 259.046875 C 184.488281 259.046875 185.890625 259.988281 186.480469 261.449219 L 203.328125 302.921875 C 203.707031 303.851562 203.707031 304.851562 203.347656 305.757812 C 203.175781 305.9375 203.0625 306.160156 203.011719 306.40625 C 202.988281 306.441406 202.96875 306.484375 202.945312 306.519531 C 202.214844 307.59375 201.050781 308.21875 199.742188 308.21875 L 123.917969 308.21875 C 122.332031 308.210938 120.921875 307.253906 120.339844 305.765625 Z M 125.21875 310.773438 L 199.757812 310.773438 C 201.898438 310.773438 203.894531 309.714844 205.085938 307.945312 C 205.09375 307.9375 205.09375 307.921875 205.101562 307.910156 L 226.847656 307.910156 C 227.394531 307.910156 227.847656 308.355469 227.847656 308.902344 L 227.847656 312.902344 C 227.847656 315.046875 226.101562 316.800781 223.945312 316.800781 L 129.902344 316.800781 C 127.316406 316.800781 125.210938 314.695312 125.210938 312.117188 L 125.210938 310.773438 Z M 226.847656 305.347656 L 206.09375 305.347656 C 206.273438 304.21875 206.15625 303.050781 205.710938 301.957031 L 202.507812 294.066406 L 236.769531 264.4375 L 240.023438 296.425781 L 236.710938 300.050781 C 236.589844 300.1875 236.496094 300.339844 236.433594 300.511719 L 235.003906 304.800781 C 234.875 305.195312 234.9375 305.621094 235.183594 305.953125 C 235.433594 306.289062 235.808594 306.484375 236.230469 306.484375 L 239.730469 306.484375 C 240.066406 306.484375 240.390625 306.355469 240.628906 306.125 L 240.988281 305.773438 L 242.195312 317.125 L 228.851562 317.125 C 229.824219 315.996094 230.425781 314.527344 230.425781 312.910156 L 230.425781 308.910156 C 230.40625 306.945312 228.808594 305.347656 226.847656 305.347656 Z M 62.125 202.027344 L 203.5625 202.027344 C 204.269531 202.027344 204.84375 201.457031 204.84375 200.746094 L 204.84375 165.8125 C 206.300781 165.402344 207.738281 165.042969 209.046875 164.804688 C 217.660156 163.214844 221.933594 158.417969 221.085938 151.316406 C 221.085938 151.308594 221.085938 151.308594 221.085938 151.300781 C 221.085938 151.273438 221.085938 151.25 221.078125 151.214844 C 220.417969 145.960938 215.296875 144.019531 211.230469 143.320312 C 214.175781 141.78125 217.308594 139.6875 217.617188 137.609375 C 217.761719 136.660156 217.378906 135.773438 216.546875 135.105469 C 214.449219 133.429688 209.578125 134.714844 204.84375 136.636719 L 204.84375 56.21875 C 204.84375 55.511719 204.269531 54.9375 203.5625 54.9375 L 61.882812 54.9375 C 61.542969 54.9375 61.214844 55.074219 60.976562 55.3125 C 60.738281 55.554688 60.601562 55.878906 60.601562 56.21875 C 60.601562 57.664062 60.839844 200.378906 60.839844 200.738281 C 60.839844 201.449219 61.421875 202.027344 62.125 202.027344 Z M 63.203125 76.585938 L 129.285156 76.585938 C 128.105469 78.132812 127 79.976562 125.953125 82.140625 C 125.742188 82.582031 125.519531 83.0625 125.277344 83.558594 L 74.316406 83.558594 C 73.605469 83.558594 73.03125 84.128906 73.03125 84.839844 L 73.03125 129.203125 C 73.03125 129.910156 73.605469 130.484375 74.316406 130.484375 L 106.417969 130.484375 C 105.769531 132.199219 105.382812 133.226562 105.367188 133.285156 C 105.289062 133.5 105.269531 133.714844 105.304688 133.925781 C 101.503906 135.480469 97.445312 137.808594 93.707031 141.277344 L 73.355469 141.277344 C 72.644531 141.277344 72.070312 141.847656 72.070312 142.558594 C 72.070312 143.269531 72.644531 143.839844 73.355469 143.839844 L 91.195312 143.839844 C 89.742188 145.472656 88.363281 147.316406 87.085938 149.386719 L 72.875 149.386719 C 72.164062 149.386719 71.59375 149.960938 71.59375 150.667969 C 71.59375 151.378906 72.164062 151.949219 72.875 151.949219 L 85.632812 151.949219 C 84.535156 154.050781 83.550781 156.375 82.714844 158.921875 L 75.746094 158.921875 C 75.035156 158.921875 74.460938 159.496094 74.460938 160.207031 C 74.460938 160.914062 75.035156 161.488281 75.746094 161.488281 L 81.890625 161.488281 C 74.972656 183.867188 71.996094 197.566406 71.59375 199.464844 L 63.417969 199.464844 C 63.390625 188.75 63.269531 113.621094 63.203125 76.585938 Z M 159.429688 79.269531 C 175.113281 88.488281 174.109375 105.058594 171.484375 118.460938 C 169.539062 128.371094 167.253906 157.351562 166.773438 163.691406 L 154.652344 163.691406 L 148.90625 139.164062 C 148.804688 138.746094 148.503906 138.40625 148.101562 138.25 C 146.929688 137.816406 143.640625 136.449219 142.402344 135.25 C 142.050781 134.328125 143.214844 130.335938 144.976562 126.304688 C 152.039062 128.644531 161.792969 124.59375 165.738281 117.40625 C 170 109.648438 166.9375 98.324219 166.808594 97.847656 C 166.628906 97.195312 165.96875 96.796875 165.300781 96.933594 L 136.628906 102.984375 C 135.59375 101.921875 133.257812 99.878906 130.773438 100.078125 C 129.765625 100.152344 128.328125 100.648438 127.195312 102.539062 C 126.417969 103.828125 126.230469 105.214844 126.632812 106.648438 C 127.546875 109.914062 131.3125 112.410156 132.847656 113.304688 C 133.515625 118.332031 137.675781 149.285156 140.628906 158.828125 C 137.460938 159.035156 130.363281 159.144531 125.894531 156.554688 L 120.972656 125.894531 C 120.859375 125.191406 120.191406 124.714844 119.5 124.835938 C 118.796875 124.945312 118.316406 125.601562 118.4375 126.304688 L 119.15625 130.800781 C 117.164062 130.882812 113.085938 131.269531 108.277344 132.824219 C 110.851562 125.980469 122.609375 94.976562 128.265625 83.242188 C 131.003906 77.566406 134.078125 74.378906 137.921875 73.21875 C 142.984375 71.6875 149.816406 73.609375 159.429688 79.269531 Z M 165.488281 199.464844 L 154.378906 199.464844 L 156.304688 192.816406 C 158.976562 192.277344 166.886719 189.9375 169.429688 180.816406 C 170.890625 175.578125 167.871094 169.390625 166.003906 166.257812 L 167.945312 166.257812 C 168.625 166.257812 169.179688 165.734375 169.230469 165.066406 C 169.238281 164.914062 169.746094 158.15625 170.488281 149.6875 C 172.339844 151.335938 175.199219 154.257812 176.679688 157.691406 C 172.203125 171.367188 166.347656 195.730469 165.507812 199.261719 C 165.507812 199.320312 165.5 199.398438 165.488281 199.464844 Z M 120.304688 199.464844 L 122.503906 197.578125 C 124.175781 197.832031 125.75 197.933594 127.1875 197.933594 C 130.457031 197.933594 133.027344 197.421875 134.4375 197.054688 C 137.085938 196.363281 138.121094 195.636719 139.320312 194.789062 C 139.910156 194.371094 140.515625 193.945312 141.433594 193.441406 C 143.394531 192.355469 144.917969 191.558594 145.664062 191.175781 C 149.617188 192.609375 151.0625 191.253906 151.585938 190.296875 C 152.921875 187.792969 150.355469 183.757812 147.109375 181.5625 C 145.019531 180.152344 141.492188 178.375 138.070312 176.777344 C 141.132812 175.902344 142.417969 174.03125 142.878906 173.058594 C 143.761719 171.222656 143.632812 169.117188 142.5625 167.9375 C 141.023438 166.230469 139.328125 167.015625 137.972656 167.648438 C 137.222656 168 136.363281 168.402344 135.261719 168.664062 C 133.566406 169.066406 132.683594 168.972656 130.730469 168.761719 C 129.25 168.597656 127.222656 168.382812 123.953125 168.308594 C 123.761719 168.308594 123.574219 168.296875 123.386719 168.296875 C 117.207031 168.296875 114.679688 170.582031 109.980469 174.988281 L 113.027344 166.359375 C 113.265625 165.691406 112.917969 164.957031 112.238281 164.726562 C 111.574219 164.496094 110.835938 164.835938 110.605469 165.511719 L 105.9375 178.714844 C 98.15625 185.714844 84.460938 199.226562 84.3125 199.363281 C 84.28125 199.398438 84.269531 199.4375 84.246094 199.464844 L 74.210938 199.464844 C 74.921875 196.210938 78.0625 182.355469 84.851562 160.582031 C 88.167969 149.949219 94.304688 142.277344 103.105469 137.695312 C 104.828125 138.960938 111.382812 143.472656 121.769531 147.070312 L 123.453125 157.546875 C 123.515625 157.90625 123.71875 158.222656 124.019531 158.417969 C 130.550781 162.683594 142.074219 161.308594 142.5625 161.238281 C 142.964844 161.1875 143.316406 160.957031 143.523438 160.605469 C 143.726562 160.257812 143.746094 159.828125 143.582031 159.460938 C 142.949219 158 142.210938 155.0625 141.449219 151.34375 C 144.027344 151.582031 146.621094 151.710938 149.207031 151.71875 L 152.382812 165.273438 C 152.519531 165.855469 153.035156 166.265625 153.632812 166.265625 L 162.988281 166.265625 C 164.257812 168.171875 168.410156 175 166.972656 180.144531 C 164.386719 189.390625 155.558594 190.378906 155.183594 190.421875 C 154.660156 190.476562 154.214844 190.832031 154.070312 191.347656 L 151.707031 199.480469 L 120.304688 199.480469 Z M 107.898438 180.390625 C 109.277344 179.160156 110.460938 178.050781 111.519531 177.050781 C 116.417969 172.453125 118.25 170.734375 123.898438 170.855469 C 127.050781 170.921875 129.019531 171.136719 130.457031 171.289062 C 132.496094 171.511719 133.726562 171.640625 135.851562 171.136719 C 137.210938 170.8125 138.230469 170.332031 139.0625 169.949219 C 140.378906 169.332031 140.414062 169.367188 140.652344 169.632812 C 140.894531 169.894531 141.066406 170.886719 140.558594 171.929688 C 139.644531 173.851562 137.066406 174.835938 133.515625 174.648438 C 133.480469 174.648438 133.4375 174.648438 133.402344 174.648438 C 130.671875 173.453125 128.609375 172.597656 128.402344 172.511719 C 127.742188 172.238281 127 172.554688 126.726562 173.210938 C 126.453125 173.871094 126.769531 174.613281 127.425781 174.886719 C 127.5625 174.9375 140.902344 180.441406 145.671875 183.664062 C 148.605469 185.65625 149.660156 188.425781 149.316406 189.066406 C 149.222656 189.234375 148.316406 189.433594 146.226562 188.621094 C 140.484375 183.980469 130.003906 180.714844 129.558594 180.578125 C 128.882812 180.375 128.164062 180.75 127.949219 181.425781 C 127.734375 182.101562 128.121094 182.816406 128.796875 183.03125 C 128.890625 183.058594 137.402344 185.714844 142.984375 189.433594 C 142.972656 189.433594 142.964844 189.433594 142.957031 189.421875 C 136.246094 188.972656 128.933594 186.046875 128.855469 186.015625 C 128.199219 185.75 127.453125 186.066406 127.1875 186.722656 C 126.921875 187.382812 127.238281 188.125 127.898438 188.390625 C 128.164062 188.492188 133.515625 190.628906 139.464844 191.585938 C 139.128906 191.789062 138.839844 191.980469 138.566406 192.160156 C 138.4375 192.125 138.308594 192.105469 138.171875 192.117188 C 133.335938 192.414062 126.527344 190.738281 126.460938 190.722656 C 125.765625 190.550781 125.074219 190.96875 124.902344 191.652344 C 124.730469 192.335938 125.148438 193.039062 125.835938 193.210938 C 126.050781 193.261719 129.738281 194.175781 133.746094 194.550781 C 131.089844 195.234375 124.164062 196.449219 116.28125 193.167969 C 115.628906 192.894531 114.875 193.199219 114.601562 193.859375 C 114.328125 194.507812 114.636719 195.261719 115.296875 195.535156 C 116.675781 196.105469 118.019531 196.542969 119.328125 196.882812 L 116.554688 199.261719 C 116.496094 199.3125 116.445312 199.371094 116.390625 199.429688 L 87.867188 199.429688 C 91.875 195.542969 101.828125 185.835938 107.898438 180.390625 Z M 107.042969 127.917969 L 75.597656 127.917969 L 75.597656 97.09375 L 119.472656 97.09375 C 114.988281 108.058594 110.058594 120.902344 107.378906 127.96875 C 107.265625 127.9375 107.15625 127.917969 107.042969 127.917969 Z M 120.527344 94.53125 L 75.597656 94.53125 L 75.597656 86.121094 L 124.121094 86.121094 C 123.019531 88.589844 121.800781 91.453125 120.527344 94.53125 Z M 105.84375 136.398438 C 112.015625 133.78125 117.566406 133.398438 119.566406 133.347656 L 121.304688 144.191406 C 113.625 141.386719 108.242188 138.097656 105.777344 136.429688 C 105.800781 136.414062 105.820312 136.40625 105.84375 136.398438 Z M 153.488281 102.050781 C 153.53125 102.101562 153.574219 102.152344 153.625 102.195312 C 153.761719 102.308594 153.898438 102.410156 154.070312 102.511719 C 154.242188 102.605469 154.429688 102.726562 154.667969 102.785156 L 154.898438 102.847656 C 154.917969 102.855469 154.933594 102.855469 154.949219 102.855469 C 155.25 102.898438 155.523438 102.691406 155.574219 102.394531 C 155.617188 102.09375 155.59375 101.855469 155.535156 101.613281 L 164.609375 99.699219 C 165.242188 102.675781 166.515625 110.65625 163.488281 116.175781 C 160.328125 121.929688 151.304688 126.476562 144.839844 123.5 C 144.191406 123.203125 143.4375 123.484375 143.136719 124.125 C 140.894531 128.953125 138.625 135.113281 140.527344 137.019531 C 142 138.492188 145.148438 139.847656 146.550781 140.40625 L 148.597656 149.128906 C 146.039062 149.105469 143.460938 148.960938 140.917969 148.703125 C 138.214844 134.550781 135.347656 112.640625 135.304688 112.339844 C 135.253906 111.929688 134.996094 111.5625 134.628906 111.375 C 133.316406 110.683594 129.773438 108.367188 129.097656 105.964844 C 128.882812 105.214844 128.984375 104.546875 129.386719 103.863281 C 130.082031 102.710938 130.75 102.65625 130.964844 102.640625 C 132.488281 102.519531 134.585938 104.511719 135.183594 105.222656 C 135.492188 105.582031 135.960938 105.75 136.433594 105.648438 Z M 202.277344 199.464844 L 191.953125 199.464844 L 194.261719 169.445312 C 195.648438 168.898438 198.828125 167.683594 202.277344 166.589844 Z M 214.945312 137.113281 C 215.042969 137.191406 215.074219 137.242188 215.082031 137.242188 C 215.042969 138.3125 210.496094 141.121094 205.71875 143.035156 L 200.703125 145.0625 C 200.042969 145.328125 199.726562 146.078125 199.992188 146.730469 C 200.195312 147.222656 200.675781 147.53125 201.179688 147.53125 C 201.34375 147.53125 201.507812 147.496094 201.660156 147.4375 L 206.453125 145.5 C 207.832031 145.488281 215.613281 145.609375 217.925781 149.703125 C 212.601562 149.121094 203.082031 150.308594 201.839844 150.464844 C 201.136719 150.558594 200.640625 151.199219 200.734375 151.898438 C 200.820312 152.546875 201.367188 153.019531 202.011719 153.019531 C 202.0625 153.019531 202.121094 153.019531 202.171875 153.011719 C 205.675781 152.558594 214.902344 151.640625 218.601562 152.386719 C 218.679688 153.769531 218.507812 155.019531 218.082031 156.136719 C 214.605469 155.820312 203.671875 156.789062 202.371094 156.898438 C 201.660156 156.957031 201.144531 157.582031 201.207031 158.292969 C 201.265625 158.957031 201.824219 159.460938 202.480469 159.460938 C 202.515625 159.460938 202.558594 159.460938 202.601562 159.453125 C 206.882812 159.070312 213.304688 158.605469 216.511719 158.625 C 214.84375 160.386719 212.199219 161.605469 208.585938 162.28125 C 202.078125 163.488281 192.953125 167.203125 192.566406 167.367188 C 192.125 167.546875 191.816406 167.972656 191.773438 168.453125 L 189.382812 199.457031 C 189.382812 199.457031 189.382812 199.464844 189.382812 199.464844 L 168.117188 199.464844 C 172.425781 181.449219 179.699219 153.820312 182.355469 150.515625 C 183.75 148.769531 185.164062 147.414062 186.523438 146.097656 C 188.835938 143.875 190.820312 141.953125 191.660156 139.105469 C 191.933594 138.164062 192.199219 137.132812 192.464844 136.105469 C 192.894531 134.457031 193.554688 131.867188 194.125 130.816406 C 194.878906 132.390625 195.480469 137.371094 193.972656 142.4375 C 193.972656 142.4375 193.972656 142.445312 193.972656 142.445312 C 193.9375 142.566406 193.929688 142.6875 193.929688 142.816406 C 193.929688 142.839844 193.929688 142.859375 193.929688 142.882812 C 193.9375 143.003906 193.957031 143.121094 193.996094 143.234375 C 193.996094 143.242188 193.996094 143.25 194.007812 143.257812 C 194.039062 143.335938 196.960938 151.328125 191.976562 155.675781 C 191.445312 156.144531 191.386719 156.949219 191.859375 157.488281 C 192.328125 158.019531 193.132812 158.078125 193.671875 157.609375 C 198.835938 153.105469 197.507812 146.085938 196.753906 143.429688 C 204.382812 139.226562 213.277344 135.773438 214.945312 137.113281 Z M 197.078125 140.300781 C 197.867188 135.636719 197.328125 131.046875 196.09375 129.132812 C 195.53125 128.253906 194.871094 127.988281 194.417969 127.929688 C 191.96875 127.585938 191.097656 131.054688 189.964844 135.464844 C 189.707031 136.464844 189.453125 137.464844 189.179688 138.378906 C 188.535156 140.574219 186.847656 142.191406 184.71875 144.25 C 183.363281 145.558594 181.824219 147.035156 180.324219 148.90625 C 179.648438 149.753906 178.785156 151.695312 177.828125 154.351562 C 175.472656 150.472656 172.046875 147.566406 170.761719 146.558594 C 171.695312 136.261719 172.902344 124.449219 173.980469 118.953125 C 174.425781 116.671875 175.078125 113.347656 175.394531 109.496094 L 193.511719 109.496094 C 194.21875 109.496094 194.792969 108.921875 194.792969 108.210938 C 194.792969 107.503906 194.21875 106.929688 193.511719 106.929688 L 175.550781 106.929688 C 175.617188 105.101562 175.582031 103.1875 175.421875 101.230469 L 182.199219 101.230469 C 182.910156 101.230469 183.484375 100.65625 183.484375 99.949219 C 183.484375 99.238281 182.910156 98.667969 182.199219 98.667969 L 175.113281 98.667969 C 174.710938 96.019531 174.015625 93.34375 172.914062 90.738281 L 195.257812 90.738281 C 195.96875 90.738281 196.539062 90.164062 196.539062 89.453125 C 196.539062 88.746094 195.96875 88.171875 195.257812 88.171875 L 171.679688 88.171875 C 171.679688 88.171875 171.671875 88.171875 171.671875 88.171875 C 169.394531 84.003906 165.917969 80.132812 160.703125 77.0625 C 160.421875 76.902344 160.148438 76.746094 159.875 76.585938 L 202.25 76.585938 L 202.25 137.746094 C 200.359375 138.617188 198.5625 139.523438 197.078125 140.300781 Z M 202.277344 57.5 L 202.277344 74.019531 L 155.300781 74.019531 C 155.242188 74.019531 155.191406 74.027344 155.140625 74.039062 C 147.65625 70.390625 141.859375 69.355469 137.179688 70.773438 C 135.132812 71.398438 133.28125 72.464844 131.597656 74.019531 L 63.203125 74.019531 C 63.183594 66.023438 63.175781 60.109375 63.175781 57.5 Z M 77.414062 70.378906 C 79.878906 70.378906 81.882812 68.378906 81.882812 65.917969 C 81.882812 63.457031 79.878906 61.457031 77.414062 61.457031 C 74.949219 61.457031 72.945312 63.457031 72.945312 65.917969 C 72.945312 68.378906 74.957031 70.378906 77.414062 70.378906 Z M 77.414062 64.023438 C 78.457031 64.023438 79.3125 64.875 79.3125 65.917969 C 79.3125 66.960938 78.457031 67.816406 77.414062 67.816406 C 76.371094 67.816406 75.511719 66.960938 75.511719 65.917969 C 75.511719 64.875 76.371094 64.023438 77.414062 64.023438 Z M 88.886719 70.378906 C 91.351562 70.378906 93.355469 68.378906 93.355469 65.917969 C 93.355469 63.457031 91.351562 61.457031 88.886719 61.457031 C 86.421875 61.457031 84.417969 63.457031 84.417969 65.917969 C 84.417969 68.378906 86.421875 70.378906 88.886719 70.378906 Z M 88.886719 64.023438 C 89.929688 64.023438 90.785156 64.875 90.785156 65.917969 C 90.785156 66.960938 89.929688 67.816406 88.886719 67.816406 C 87.839844 67.816406 86.984375 66.960938 86.984375 65.917969 C 86.984375 64.875 87.839844 64.023438 88.886719 64.023438 Z M 100.511719 70.304688 C 102.976562 70.304688 104.980469 68.304688 104.980469 65.84375 C 104.980469 63.382812 102.976562 61.382812 100.511719 61.382812 C 98.046875 61.382812 96.042969 63.382812 96.042969 65.84375 C 96.042969 68.304688 98.046875 70.304688 100.511719 70.304688 Z M 100.511719 63.9375 C 101.554688 63.9375 102.410156 64.792969 102.410156 65.832031 C 102.410156 66.875 101.554688 67.730469 100.511719 67.730469 C 99.46875 67.730469 98.609375 66.875 98.609375 65.832031 C 98.609375 64.792969 99.46875 63.9375 100.511719 63.9375 Z M 200.625 99.941406 C 200.625 100.648438 200.050781 101.222656 199.339844 101.222656 L 191.378906 101.222656 C 190.667969 101.222656 190.09375 100.648438 190.09375 99.941406 C 190.09375 99.230469 190.667969 98.660156 191.378906 98.660156 L 199.339844 98.660156 C 200.050781 98.660156 200.625 99.230469 200.625 99.941406 Z M 82.226562 90.085938 C 82.226562 90.890625 81.566406 91.546875 80.761719 91.546875 C 79.957031 91.546875 79.296875 90.890625 79.296875 90.085938 C 79.296875 89.285156 79.957031 88.625 80.761719 88.625 C 81.566406 88.625 82.226562 89.273438 82.226562 90.085938 Z M 88.082031 90.085938 C 88.082031 90.890625 87.421875 91.546875 86.617188 91.546875 C 85.8125 91.546875 85.152344 90.890625 85.152344 90.085938 C 85.152344 89.285156 85.8125 88.625 86.617188 88.625 C 87.421875 88.625 88.082031 89.273438 88.082031 90.085938 Z M 233.351562 89.085938 C 235.792969 89.085938 237.769531 87.105469 237.769531 84.675781 C 237.769531 82.25 235.785156 80.269531 233.351562 80.269531 C 230.921875 80.269531 228.9375 82.25 228.9375 84.675781 C 228.9375 87.105469 230.921875 89.085938 233.351562 89.085938 Z M 233.351562 82.832031 C 234.371094 82.832031 235.203125 83.660156 235.203125 84.675781 C 235.203125 85.695312 234.371094 86.523438 233.351562 86.523438 C 232.335938 86.523438 231.503906 85.695312 231.503906 84.675781 C 231.503906 83.660156 232.335938 82.832031 233.351562 82.832031 Z M 248.453125 89.085938 C 250.894531 89.085938 252.871094 87.105469 252.871094 84.675781 C 252.871094 82.25 250.886719 80.269531 248.453125 80.269531 C 246.023438 80.269531 244.039062 82.25 244.039062 84.675781 C 244.039062 87.105469 246.023438 89.085938 248.453125 89.085938 Z M 248.453125 82.832031 C 249.472656 82.832031 250.304688 83.660156 250.304688 84.675781 C 250.304688 85.695312 249.472656 86.523438 248.453125 86.523438 C 247.4375 86.523438 246.605469 85.695312 246.605469 84.675781 C 246.605469 83.660156 247.4375 82.832031 248.453125 82.832031 Z M 263.554688 89.085938 C 265.996094 89.085938 267.972656 87.105469 267.972656 84.675781 C 267.972656 82.25 265.988281 80.269531 263.554688 80.269531 C 261.125 80.269531 259.140625 82.25 259.140625 84.675781 C 259.140625 87.105469 261.125 89.085938 263.554688 89.085938 Z M 263.554688 82.832031 C 264.574219 82.832031 265.40625 83.660156 265.40625 84.675781 C 265.40625 85.695312 264.574219 86.523438 263.554688 86.523438 C 262.539062 86.523438 261.707031 85.695312 261.707031 84.675781 C 261.707031 83.660156 262.539062 82.832031 263.554688 82.832031 Z M 25.207031 230.734375 C 28.96875 230.734375 32.1875 229.195312 34.019531 227.742188 C 34.292969 227.53125 34.464844 227.203125 34.496094 226.863281 C 34.53125 226.511719 34.421875 226.171875 34.199219 225.90625 C 24.910156 215.085938 14.070312 223.257812 13.960938 223.34375 C 13.675781 223.5625 13.496094 223.890625 13.460938 224.246094 C 13.429688 224.605469 13.558594 224.957031 13.796875 225.222656 C 17.605469 229.359375 21.648438 230.734375 25.207031 230.734375 Z M 31.253906 226.503906 C 28.804688 227.914062 22.871094 230.238281 16.765625 224.574219 C 19.34375 223.136719 25.464844 220.777344 31.253906 226.503906 Z M 226.839844 101.367188 L 221.589844 109.675781 C 221.273438 110.167969 221.34375 110.820312 221.746094 111.238281 C 221.992188 111.503906 222.335938 111.640625 222.675781 111.640625 C 222.890625 111.640625 223.105469 111.589844 223.300781 111.476562 L 240.046875 102.101562 L 264.722656 102.101562 C 274.121094 102.101562 281.773438 94.460938 281.773438 85.078125 C 281.773438 75.695312 274.121094 68.054688 264.722656 68.054688 L 231.753906 68.054688 C 222.351562 68.054688 214.699219 75.695312 214.699219 85.078125 C 214.699219 92.652344 219.707031 99.230469 226.839844 101.367188 Z M 231.753906 70.621094 L 264.722656 70.621094 C 272.707031 70.621094 279.207031 77.105469 279.207031 85.078125 C 279.207031 93.050781 272.707031 99.539062 264.722656 99.539062 L 239.714844 99.539062 C 239.492188 99.539062 239.277344 99.597656 239.089844 99.699219 L 226.460938 106.769531 L 229.964844 101.230469 C 230.195312 100.871094 230.21875 100.417969 230.058594 100.035156 C 229.886719 99.640625 229.535156 99.367188 229.117188 99.289062 C 222.257812 98.027344 217.277344 92.050781 217.277344 85.085938 C 217.265625 77.105469 223.765625 70.621094 231.753906 70.621094 Z M 268.632812 174.246094 C 269.011719 173.023438 269.996094 172.238281 270.824219 172.496094 C 271.65625 172.75 272.023438 173.945312 271.636719 175.179688 C 271.261719 176.398438 270.277344 177.1875 269.445312 176.929688 C 268.625 176.671875 268.257812 175.476562 268.632812 174.246094 Z M 257.503906 170.71875 C 257.878906 169.496094 258.863281 168.707031 259.695312 168.964844 C 260.527344 169.222656 260.894531 170.417969 260.507812 171.648438 C 260.132812 172.871094 259.148438 173.65625 258.316406 173.398438 C 257.488281 173.136719 257.128906 171.9375 257.503906 170.71875 Z M 264.0625 176.820312 L 264.207031 176.84375 C 264.695312 176.929688 265.019531 177.398438 264.933594 177.886719 C 264.875 178.195312 264.660156 178.441406 264.386719 178.5625 C 263.984375 178.722656 263.554688 178.84375 263.09375 178.894531 C 262.625 178.921875 262.125 178.914062 261.597656 178.742188 C 261.082031 178.570312 260.527344 178.253906 260.175781 177.75 C 259.824219 177.238281 259.667969 176.699219 259.796875 176.039062 C 259.816406 175.945312 259.902344 175.878906 260.003906 175.886719 L 261.425781 175.964844 C 261.527344 175.972656 261.621094 176.101562 261.707031 176.152344 C 261.792969 176.210938 261.863281 176.261719 261.929688 176.304688 C 262.058594 176.382812 262.167969 176.476562 262.375 176.546875 C 262.554688 176.628906 262.828125 176.671875 263.109375 176.722656 C 263.265625 176.742188 263.410156 176.757812 263.574219 176.785156 C 263.71875 176.785156 263.890625 176.792969 264.0625 176.820312 Z M 266.160156 185.902344 C 266.175781 186.234375 265.988281 186.527344 265.707031 186.664062 C 265.292969 186.851562 264.875 187.03125 264.4375 187.175781 C 263.984375 187.277344 263.539062 187.441406 263.058594 187.457031 C 262.117188 187.59375 261.117188 187.457031 260.183594 187.183594 C 259.242188 186.894531 258.378906 186.390625 257.667969 185.75 C 256.9375 185.097656 256.398438 184.375 255.980469 183.425781 C 255.78125 182.972656 255.988281 182.441406 256.433594 182.246094 C 256.792969 182.082031 257.210938 182.183594 257.460938 182.46875 L 257.5625 182.578125 C 257.992188 183.058594 258.566406 183.605469 259.113281 184.003906 C 259.679688 184.425781 260.277344 184.757812 260.917969 184.980469 C 261.5625 185.195312 262.238281 185.355469 262.949219 185.347656 C 263.300781 185.390625 263.667969 185.320312 264.042969 185.320312 C 264.421875 185.296875 264.789062 185.210938 265.183594 185.183594 L 265.320312 185.175781 C 265.765625 185.140625 266.132812 185.46875 266.160156 185.902344 Z M 257.539062 165.339844 C 257.5625 165.1875 257.65625 165.058594 257.777344 164.972656 C 258.351562 164.582031 258.933594 164.394531 259.59375 164.316406 C 260.242188 164.238281 260.9375 164.316406 261.585938 164.5625 C 262.238281 164.792969 262.847656 165.203125 263.273438 165.726562 C 263.71875 166.238281 263.992188 166.855469 264.105469 167.476562 C 264.171875 167.90625 263.890625 168.308594 263.460938 168.375 C 263.25 168.410156 263.042969 168.359375 262.878906 168.246094 L 262.777344 168.171875 C 262.339844 167.863281 262.03125 167.554688 261.691406 167.316406 C 261.375 167.050781 261.039062 166.871094 260.695312 166.691406 C 260.347656 166.519531 259.960938 166.382812 259.53125 166.273438 C 259.105469 166.160156 258.609375 166.101562 258.136719 166.023438 L 258 166 C 257.691406 165.949219 257.488281 165.648438 257.539062 165.339844 Z M 269.179688 168.90625 C 269.207031 168.75 269.300781 168.625 269.421875 168.539062 C 269.996094 168.144531 270.578125 167.957031 271.234375 167.878906 C 271.886719 167.800781 272.578125 167.878906 273.230469 168.128906 C 273.882812 168.359375 274.488281 168.769531 274.917969 169.289062 C 275.363281 169.800781 275.636719 170.417969 275.746094 171.042969 C 275.816406 171.46875 275.535156 171.871094 275.105469 171.9375 C 274.890625 171.972656 274.6875 171.921875 274.523438 171.8125 L 274.421875 171.734375 C 273.984375 171.425781 273.675781 171.117188 273.332031 170.878906 C 273.015625 170.613281 272.683594 170.433594 272.339844 170.253906 C 271.988281 170.085938 271.605469 169.949219 271.175781 169.835938 C 270.746094 169.726562 270.25 169.664062 269.78125 169.589844 L 269.644531 169.5625 C 269.335938 169.503906 269.128906 169.210938 269.179688 168.90625 Z M 149.867188 104.914062 C 150.449219 103.929688 151.457031 103.453125 152.125 103.84375 C 152.792969 104.238281 152.863281 105.351562 152.28125 106.339844 C 151.699219 107.332031 150.6875 107.800781 150.019531 107.410156 C 149.351562 107.015625 149.285156 105.90625 149.867188 104.914062 Z M 158.871094 110.117188 C 159.453125 109.136719 160.464844 108.65625 161.132812 109.050781 C 161.800781 109.441406 161.867188 110.554688 161.285156 111.546875 C 160.703125 112.535156 159.695312 113.007812 159.027344 112.613281 C 158.359375 112.21875 158.289062 111.101562 158.871094 110.117188 Z M 152.460938 110.691406 C 152.742188 110.589844 153.050781 110.65625 153.265625 110.835938 L 153.324219 110.886719 C 153.5625 111.09375 153.769531 111.289062 153.976562 111.460938 C 154.179688 111.613281 154.367188 111.769531 154.53125 111.835938 C 154.695312 111.921875 154.824219 111.945312 154.960938 111.980469 C 155.078125 112.023438 155.300781 112.03125 155.480469 112.109375 L 156.183594 112.410156 C 156.457031 112.519531 156.585938 112.835938 156.464844 113.109375 C 156.449219 113.152344 156.421875 113.195312 156.398438 113.230469 C 156.03125 113.707031 155.59375 113.9375 155.046875 114.007812 C 154.496094 114.074219 153.957031 113.902344 153.539062 113.664062 C 153.101562 113.425781 152.800781 113.101562 152.535156 112.777344 C 152.296875 112.441406 152.117188 112.09375 151.980469 111.726562 C 151.828125 111.296875 152.039062 110.835938 152.460938 110.691406 Z M 145.84375 115.699219 C 145.722656 115.332031 145.929688 114.9375 146.296875 114.828125 C 146.59375 114.734375 146.902344 114.851562 147.074219 115.09375 L 147.117188 115.152344 C 147.519531 115.722656 147.898438 116.261719 148.351562 116.714844 C 148.777344 117.1875 149.292969 117.535156 149.816406 117.828125 C 150.34375 118.117188 150.925781 118.3125 151.542969 118.433594 C 152.144531 118.554688 152.84375 118.597656 153.417969 118.597656 L 153.546875 118.597656 C 153.984375 118.597656 154.34375 118.945312 154.351562 119.390625 C 154.351562 119.742188 154.121094 120.046875 153.804688 120.152344 C 152.929688 120.441406 152.125 120.519531 151.261719 120.433594 C 150.414062 120.347656 149.558594 120.082031 148.804688 119.636719 C 148.058594 119.195312 147.375 118.621094 146.894531 117.914062 C 146.621094 117.585938 146.457031 117.203125 146.253906 116.84375 C 146.097656 116.46875 145.96875 116.082031 145.84375 115.699219 Z M 159.164062 105.699219 C 159.207031 105.511719 159.316406 105.359375 159.460938 105.265625 C 159.941406 104.957031 160.507812 104.769531 161.113281 104.761719 C 161.714844 104.734375 162.347656 104.878906 162.894531 105.171875 C 163.445312 105.453125 163.914062 105.855469 164.25 106.332031 C 164.589844 106.8125 164.8125 107.316406 164.898438 107.921875 C 164.933594 108.195312 164.746094 108.453125 164.460938 108.484375 C 164.324219 108.503906 164.1875 108.46875 164.085938 108.382812 L 163.992188 108.304688 C 163.65625 108.050781 163.316406 107.75 162.988281 107.539062 C 162.65625 107.316406 162.339844 107.144531 162.015625 107.023438 C 161.6875 106.914062 161.371094 106.800781 161.003906 106.75 C 160.644531 106.664062 160.25 106.648438 159.796875 106.546875 L 159.683594 106.519531 C 159.324219 106.445312 159.085938 106.074219 159.164062 105.699219 Z M 159.164062 105.699219 " fill-opacity="1" fill-rule="nonzero"/></g></svg>